# xmcd CD database file
#
# Track frame offsets:
#	150
#	16630
#	32670
#	46872
#	63825
#	81552
#	97452
#	112987
#	126705
#	141025
#	156570
#	172367
#	188525
#	204160
#	217180
#	231390
#	242882
#	255547
#
# Disc length: 3642 seconds
#
# Revision: 0
# Processed by: cddbd v1.5.1PL0 Copyright (c) Steve Scherf et al.
# Submitted via: CDex 1.51
#
DISCID=0c0e3812
DTITLE=Alternative Country - Alternative Country
DYEAR=1995
DGENRE=Country
TTITLE0=Malinda
TTITLE1=Colinda
TTITLE2=Wonderful Tonight - David Kersh
TTITLE3=We Lose - Brad Hawkins
TTITLE4=If I Had A Boat - Lyle Lovett
TTITLE5=Walk To The Light - Jo Dee Messina
TTITLE6=Let Your Heart Lead Your Mind - Smockin' Armadillos
TTITLE7=Little Candles - Cactus Choir
TTITLE8=In A Heartbeat - Rodney Atkins
TTITLE9=She Know Me By Heart - Seminole
TTITLE10=Yellow Rose - Phillip Claypole
TTITLE11=Our Love Is Meant To Be - Boy Howdy
TTITLE12=Just To See Your Smile - Tim Mcgraw
TTITLE13=Sure Love - Hal Ketchum
TTITLE14=True Love Never Dies - Ruby Lovett
TTITLE15=The Story Of Love - Desert Rose Band
TTITLE16=Blue - LeAnn Rimes
TTITLE17=The Other Side - Wynona (Kevin Welch)
EXTD=YEAR: 1995
EXTT0=
EXTT1=
EXTT2=
EXTT3=
EXTT4=
EXTT5=
EXTT6=
EXTT7=
EXTT8=
EXTT9=
EXTT10=
EXTT11=
EXTT12=
EXTT13=
EXTT14=
EXTT15=
EXTT16=
EXTT17=
PLAYORDER=
